# xmcd CD database file
#
# Track frame offsets:
#	150
#	1606
#	6272
#	27946
#	44535
#	70931
#	90678
#	104772
#	124473
#	144118
#	161773
#	187495
#	212826
#
# Disc length: 3177 seconds
#
# Revision: 0
# Processed by: cddbd v1.5.1PL2 Copyright (c) Steve Scherf et al.
# Submitted via: CDex 1.51
#
DISCID=ba0c670d
DTITLE=Miles Davis - jazz after hours with miles davis - live at the royal roost
DYEAR=2005
DGENRE=Jazz
TTITLE0=Birth of the Cool Theme
TTITLE1=Introduction
TTITLE2=Move
TTITLE3=Why Do I Love You?
TTITLE4=Godchild
TTITLE5=S'in Vous Plait
TTITLE6=Moon Dreams
TTITLE7=Budo (Hallucinations)
TTITLE8=Darn That Dream
TTITLE9=52nd Street Theme
TTITLE10=Half Nelson
TTITLE11=You Go To My Head
TTITLE12=Chasin' The Bird
EXTD=YEAR: 2005
EXTT0=
EXTT1=
EXTT2=
EXTT3=
EXTT4=
EXTT5=
EXTT6=
EXTT7=
EXTT8=
EXTT9=
EXTT10=
EXTT11=
EXTT12=
PLAYORDER=
